<svg width="257" height="213" viewBox="0 0 257 213" fill="none" xmlns="http://www.w3.org/2000/svg">
	<path d="M125.288 81.2875C125.288 12.0931 69.1944 -44 0 -44V-15.0875C0 38.139 43.1485 81.2875 96.375 81.2875H125.288Z" fill="url(#paint0_linear_3_351)" />
	<path d="M131.712 81.2875C131.712 12.0931 187.806 -44 257 -44V-15.0875C257 38.139 213.851 81.2875 160.625 81.2875H131.712Z" fill="url(#paint1_linear_3_351)" />
	<path d="M0 213C69.1944 213 125.288 156.907 125.288 87.7125H96.375C43.1485 87.7125 0 130.861 0 184.087V213Z" fill="url(#paint2_linear_3_351)" />
	<path d="M131.712 87.7125C131.712 156.907 187.806 213 257 213V184.087C257 130.861 213.851 87.7125 160.625 87.7125H131.712Z" fill="url(#paint3_linear_3_351)" />
	<defs>
		<linearGradient id="paint0_linear_3_351" x1="128.5" y1="-44" x2="128.5" y2="213" gradientUnits="userSpaceOnUse">
			<stop stop-color="white" stop-opacity="0.2" />
			<stop offset="1" stop-color="white" stop-opacity="0" />
		</linearGradient>
		<linearGradient id="paint1_linear_3_351" x1="128.5" y1="-44" x2="128.5" y2="213" gradientUnits="userSpaceOnUse">
			<stop stop-color="white" stop-opacity="0.2" />
			<stop offset="1" stop-color="white" stop-opacity="0" />
		</linearGradient>
		<linearGradient id="paint2_linear_3_351" x1="128.5" y1="-44" x2="128.5" y2="213" gradientUnits="userSpaceOnUse">
			<stop stop-color="white" stop-opacity="0.2" />
			<stop offset="1" stop-color="white" stop-opacity="0" />
		</linearGradient>
		<linearGradient id="paint3_linear_3_351" x1="128.5" y1="-44" x2="128.5" y2="213" gradientUnits="userSpaceOnUse">
			<stop stop-color="white" stop-opacity="0.2" />
			<stop offset="1" stop-color="white" stop-opacity="0" />
		</linearGradient>
	</defs>
</svg>
